<svg xmlns="http://www.w3.org/2000/svg" viewBox="0 0 50 40">
  <defs>
    <linearGradient id="chestGrad" x1="0%" y1="0%" x2="0%" y2="100%">
      <stop offset="0%" style="stop-color:#8D6E63"/>
      <stop offset="100%" style="stop-color:#5D4037"/>
    </linearGradient>
  </defs>
  <!-- Chest base -->
  <rect x="5" y="18" width="40" height="20" rx="2" fill="url(#chestGrad)"/>
  <!-- Chest lid -->
  <path d="M5,18 Q25,5 45,18" fill="#6D4C41"/>
  <path d="M7,18 Q25,7 43,18" fill="#8D6E63"/>
  <!-- Metal bands -->
  <rect x="3" y="16" width="44" height="4" rx="1" fill="#FFB300"/>
  <rect x="3" y="30" width="44" height="3" rx="1" fill="#FFB300"/>
  <!-- Lock -->
  <rect x="21" y="14" width="8" height="10" rx="2" fill="#FFC107"/>
  <circle cx="25" cy="20" r="2" fill="#5D4037"/>
  <!-- Coins peeking out -->
  <circle cx="15" cy="16" r="3" fill="#FFD54F"/>
  <circle cx="35" cy="15" r="2.5" fill="#FFD54F"/>
  <!-- Sparkle -->
  <polygon points="40,10 41,12 43,12 41.5,13.5 42,16 40,14.5 38,16 38.5,13.5 37,12 39,12" fill="#FFF9C4"/>
</svg>