<svg xmlns="http://www.w3.org/2000/svg" viewBox="0 0 200 150">
  <defs>
    <linearGradient id="forestSky" x1="0%" y1="0%" x2="0%" y2="100%">
      <stop offset="0%" style="stop-color:#87CEEB"/>
      <stop offset="100%" style="stop-color:#E8F5E9"/>
    </linearGradient>
  </defs>
  <!-- Sky -->
  <rect width="200" height="150" fill="url(#forestSky)"/>
  <!-- Ground -->
  <ellipse cx="100" cy="145" rx="110" ry="25" fill="#4CAF50"/>
  <ellipse cx="100" cy="140" rx="100" ry="20" fill="#66BB6A"/>
  <!-- Back trees -->
  <polygon points="30,70 45,130 15,130" fill="#2E7D32"/>
  <polygon points="50,60 70,130 30,130" fill="#388E3C"/>
  <polygon points="150,65 170,130 130,130" fill="#2E7D32"/>
  <polygon points="170,55 190,130 150,130" fill="#388E3C"/>
  <!-- Tree trunks -->
  <rect x="42" y="100" width="8" height="30" fill="#5D4037"/>
  <rect x="155" y="95" width="8" height="35" fill="#5D4037"/>
  <!-- Bushes -->
  <ellipse cx="20" cy="135" rx="25" ry="15" fill="#43A047"/>
  <ellipse cx="180" cy="138" rx="20" ry="12" fill="#43A047"/>
  <!-- Small flowers -->
  <circle cx="60" cy="138" r="3" fill="#FFD54F"/>
  <circle cx="140" cy="140" r="3" fill="#FF8A80"/>
  <circle cx="100" cy="142" r="2" fill="#CE93D8"/>
</svg>