<svg xmlns="http://www.w3.org/2000/svg" viewBox="0 0 200 200">
  <defs>
    <linearGradient id="skyGrad" x1="0%" y1="0%" x2="0%" y2="100%">
      <stop offset="0%" style="stop-color:#87CEEB;stop-opacity:1" />
      <stop offset="100%" style="stop-color:#E0F4FF;stop-opacity:1" />
    </linearGradient>
    <linearGradient id="grassGrad" x1="0%" y1="0%" x2="0%" y2="100%">
      <stop offset="0%" style="stop-color:#7CCD7C;stop-opacity:1" />
      <stop offset="100%" style="stop-color:#4A9F4A;stop-opacity:1" />
    </linearGradient>
  </defs>
  <!-- Sky -->
  <rect width="200" height="200" fill="url(#skyGrad)"/>
  <!-- Sun -->
  <circle cx="160" cy="35" r="20" fill="#FFE066" opacity="0.9"/>
  <!-- Clouds -->
  <ellipse cx="40" cy="30" rx="25" ry="12" fill="white" opacity="0.8"/>
  <ellipse cx="55" cy="28" rx="18" ry="10" fill="white" opacity="0.8"/>
  <ellipse cx="120" cy="50" rx="20" ry="10" fill="white" opacity="0.7"/>
  <!-- Ground -->
  <ellipse cx="100" cy="200" rx="120" ry="60" fill="url(#grassGrad)"/>
  <!-- Flowers -->
  <circle cx="30" cy="165" r="4" fill="#FF6B9D"/>
  <circle cx="28" cy="163" r="2" fill="#FFD93D"/>
  <circle cx="75" cy="175" r="5" fill="#FF9A8B"/>
  <circle cx="73" cy="173" r="2.5" fill="#FFE066"/>
  <circle cx="150" cy="168" r="4" fill="#C9A0DC"/>
  <circle cx="148" cy="166" r="2" fill="#FFD93D"/>
  <circle cx="170" cy="178" r="3" fill="#FF6B9D"/>
  <!-- Grass blades -->
  <path d="M25 180 Q27 170 25 160" stroke="#5AB55A" stroke-width="2" fill="none"/>
  <path d="M80 185 Q82 175 80 165" stroke="#5AB55A" stroke-width="2" fill="none"/>
  <path d="M155 182 Q157 172 155 162" stroke="#5AB55A" stroke-width="2" fill="none"/>
</svg>
